<?xml version="1.0" standalone="no"?>
<!DOCTYPE svg PUBLIC "-//W3C//DTD SVG 20010904//EN"
 "http://www.w3.org/TR/2001/REC-SVG-20010904/DTD/svg10.dtd">
<svg version="1.0" xmlns="http://www.w3.org/2000/svg"
 width="430.000000pt" height="117.000000pt" viewBox="0 0 430.000000 117.000000"
 preserveAspectRatio="xMidYMid meet">

<g transform="translate(0.000000,117.000000) scale(0.100000,-0.100000)"
fill="#000000" stroke="none">
<path d="M851 1148 c-5 -13 -20 -39 -33 -58 -19 -28 -85 -136 -191 -315 -7
-10 -22 -37 -35 -58 l-23 -39 39 -61 c22 -34 58 -93 81 -132 23 -38 65 -106
93 -150 28 -44 63 -103 78 -130 15 -28 44 -76 64 -108 l37 -57 129 0 c72 0
130 3 130 6 0 3 -13 24 -28 47 -15 23 -33 51 -39 62 -6 11 -38 63 -71 115
-123 198 -162 262 -162 267 0 3 -9 16 -20 30 -30 38 -26 53 15 53 30 0 37 -5
57 -41 13 -23 28 -49 33 -58 6 -9 54 -88 109 -176 54 -88 120 -193 145 -232
l46 -73 129 0 128 0 -16 25 c-9 13 -24 38 -34 54 -9 16 -37 62 -62 103 -25 40
-48 80 -52 88 -4 8 -27 47 -52 85 -24 39 -79 129 -122 200 -43 72 -98 162
-123 200 -25 39 -54 87 -66 107 -54 97 -161 268 -168 268 -4 0 -11 -10 -16
-22z"/>
<path d="M1795 1009 c-58 -18 -95 -65 -95 -121 0 -47 50 -106 107 -128 68 -27
137 -65 147 -82 15 -25 -3 -50 -45 -61 -29 -8 -100 -6 -183 5 -15 2 -21 -5
-27 -32 -4 -19 -4 -39 1 -44 15 -15 172 -19 235 -6 45 9 68 21 93 46 33 33 34
37 30 90 -6 73 -35 102 -152 151 -95 41 -117 65 -91 100 11 15 27 18 107 17
55 0 96 4 100 10 13 19 9 54 -8 60 -24 9 -185 5 -219 -5z"/>
<path d="M2190 1004 c0 -3 29 -52 64 -108 88 -140 96 -162 96 -267 l0 -89 55
0 56 0 -2 93 c-2 108 4 124 106 269 36 50 65 95 65 100 0 4 -25 8 -55 8 -30 0
-55 -4 -55 -9 0 -20 -104 -223 -108 -210 -3 8 -27 60 -54 117 l-49 102 -60 0
c-32 0 -59 -3 -59 -6z"/>
<path d="M2790 775 l0 -235 55 0 55 0 0 89 0 88 67 6 c96 9 170 47 194 101 23
50 24 78 4 116 -29 56 -76 70 -235 70 l-140 0 0 -235z m260 150 c20 -18 26
-58 14 -90 -10 -25 -59 -45 -112 -45 l-49 0 -7 70 c-4 38 -4 75 0 81 11 18
131 5 154 -16z"/>
<path d="M3345 775 l0 -235 173 0 172 0 0 39 0 38 -120 -5 -120 -5 0 72 0 71
90 0 90 0 0 35 0 35 -89 0 -89 0 -4 60 -3 60 113 0 112 0 0 35 0 35 -162 0
-163 0 0 -235z"/>
<path d="M3846 998 c19 -33 100 -146 122 -170 l24 -27 -71 -98 c-40 -54 -81
-113 -93 -130 l-20 -33 60 0 61 0 42 83 c62 123 63 123 85 94 11 -13 37 -58
59 -100 l40 -77 68 0 68 0 -15 28 c-8 15 -48 74 -88 132 l-75 105 48 57 c26
32 62 78 79 103 l31 45 -58 0 -58 0 -41 -77 c-22 -42 -45 -78 -51 -80 -5 -2
-29 33 -54 77 l-44 80 -63 0 c-48 0 -61 -3 -56 -12z"/>
</g>
</svg>
